<svg xmlns="http://www.w3.org/2000/svg" viewBox="0 0 1200 600"><path fill="#0051ba" d="M0 0h1200v600H0z"/><path fill="#215b33" d="M1200 0v600H0z"/><path fill="#fcd116" d="M0 600 1200 0l-70-70L-70 530z"/><g fill="#fff"><polygon points="120.000,55.000 130.580,85.438 162.798,86.094 137.119,105.562 146.450,136.406 120.000,118.000 93.550,136.406 102.881,105.562 77.202,86.094 109.420,85.438"/><polygon points="250.000,55.000 260.580,85.438 292.798,86.094 267.119,105.562 276.450,136.406 250.000,118.000 223.550,136.406 232.881,105.562 207.202,86.094 239.420,85.438"/><polygon points="185.000,155.000 195.580,185.438 227.798,186.094 202.119,205.562 211.450,236.406 185.000,218.000 158.550,236.406 167.881,205.562 142.202,186.094 174.420,185.438"/><polygon points="120.000,255.000 130.580,285.438 162.798,286.094 137.119,305.562 146.450,336.406 120.000,318.000 93.550,336.406 102.881,305.562 77.202,286.094 109.420,285.438"/><polygon points="250.000,255.000 260.580,285.438 292.798,286.094 267.119,305.562 276.450,336.406 250.000,318.000 223.550,336.406 232.881,305.562 207.202,286.094 239.420,285.438"/></g></svg>