<svg xmlns="http://www.w3.org/2000/svg" viewBox="0 0 4320 2880"><path fill="#fff" d="M0 0h4320v2880H0z"/><path fill="#ef3340" d="M0 0h4320v1440H0z"/><circle cx="960" cy="720" r="480" fill="#fff"/><circle cx="1120" cy="720" r="480" fill="#ef3340"/><polygon fill="#fff" points="1500.000,410.000 1525.863,484.403 1604.616,486.008 1541.846,533.597 1564.656,608.992 1500.000,564.000 1435.344,608.992 1458.154,533.597 1395.384,486.008 1474.137,484.403"/><polygon fill="#fff" points="1710.000,570.000 1735.863,644.403 1814.616,646.008 1751.846,693.597 1774.656,768.992 1710.000,724.000 1645.344,768.992 1668.154,693.597 1605.384,646.008 1684.137,644.403"/><polygon fill="#fff" points="1630.000,820.000 1655.863,894.403 1734.616,896.008 1671.846,943.597 1694.656,1018.992 1630.000,974.000 1565.344,1018.992 1588.154,943.597 1525.384,896.008 1604.137,894.403"/><polygon fill="#fff" points="1370.000,820.000 1395.863,894.403 1474.616,896.008 1411.846,943.597 1434.656,1018.992 1370.000,974.000 1305.344,1018.992 1328.154,943.597 1265.384,896.008 1344.137,894.403"/><polygon fill="#fff" points="1290.000,570.000 1315.863,644.403 1394.616,646.008 1331.846,693.597 1354.656,768.992 1290.000,724.000 1225.344,768.992 1248.154,693.597 1185.384,646.008 1264.137,644.403"/></svg>